<?xml version="1.0" standalone="no"?>
<!DOCTYPE svg PUBLIC "-//W3C//DTD SVG 1.1//EN" "http://www.w3.org/Graphics/SVG/1.1/DTD/svg11.dtd" >
<svg xmlns="http://www.w3.org/2000/svg">
<metadata>
Created by FontForge 20120731 at Thu Jul 13 20:39:33 2017
 By admin
</metadata>
<defs>
<font id="iconfont" horiz-adv-x="1024" >
  <font-face 
    font-family="iconfont"
    font-weight="500"
    font-stretch="normal"
    units-per-em="1024"
    panose-1="2 0 6 3 0 0 0 0 0 0"
    ascent="896"
    descent="-128"
    x-height="792"
    bbox="-0.0625 -128.127 3443 896.291"
    underline-thickness="0"
    underline-position="0"
    unicode-range="U+0078-E640"
  />
<missing-glyph 
 />
    <glyph glyph-name=".notdef" 
 />
    <glyph glyph-name=".notdef" 
 />
    <glyph glyph-name=".null" horiz-adv-x="0" 
 />
    <glyph glyph-name="nonmarkingreturn" horiz-adv-x="341" 
 />
    <glyph glyph-name="x" unicode="x" horiz-adv-x="1001" 
d="M281 543q-27 -1 -53 -1h-83q-18 0 -36.5 -6t-32.5 -18.5t-23 -32t-9 -45.5v-76h912v41q0 16 -0.5 30t-0.5 18q0 13 -5 29t-17 29.5t-31.5 22.5t-49.5 9h-133v-97h-438v97zM955 310v-52q0 -23 0.5 -52t0.5 -58t-10.5 -47.5t-26 -30t-33 -16t-31.5 -4.5q-14 -1 -29.5 -0.5
t-29.5 0.5h-32l-45 128h-439l-44 -128h-29h-34q-20 0 -45 1q-25 0 -41 9.5t-25.5 23t-13.5 29.5t-4 30v167h911zM163 247q-12 0 -21 -8.5t-9 -21.5t9 -21.5t21 -8.5q13 0 22 8.5t9 21.5t-9 21.5t-22 8.5zM316 123q-8 -26 -14 -48q-5 -19 -10.5 -37t-7.5 -25t-3 -15t1 -14.5
t9.5 -10.5t21.5 -4h37h67h81h80h64h36q23 0 34 12t2 38q-5 13 -9.5 30.5t-9.5 34.5q-5 19 -11 39h-368zM336 498v228q0 11 2.5 23t10 21.5t20.5 15.5t34 6h188q31 0 51.5 -14.5t20.5 -52.5v-227h-327z" />
    <glyph glyph-name="qianjin" unicode="&#xe606;" 
d="M249 803q137 -135 284 -259l64 -54q55 -48 75.5 -70.5t19.5 -34.5q-1 -8 -76.5 -81.5t-189 -185t-178.5 -185.5q-8 -9 -8 -22q0 -14 10 -24t24 -10t25 11q85 95 156 166t174 163q82 73 105 101.5t26 60.5q3 36 -21 67.5t-98 94.5l-64 55q-145 122 -280 256q-10 10 -24 10
t-24 -10t-10 -24.5t10 -24.5z" />
    <glyph glyph-name="quan_mis" unicode="&#xe608;" 
d="M245 -29q-161 -75 -220 -10q-67 74 46 262q-23 72 -23 149v0q0 102 39 194.5t104 159.5t155.5 106.5t189.5 39.5q93 0 179 -34q188 101 255 27q59 -65 -23 -223q32 -51 54.5 -129.5t22.5 -139.5v-1q0 -102 -38.5 -194.5t-104 -159.5t-156 -106.5t-189.5 -39.5
q-162 0 -291 99zM184 26q-46 49 -78 109q-23 -47 -30.5 -80.5t2.5 -42.5q20 -21 106 14zM797 795q23 -15 52.5 -40.5t47.5 -46.5q39 85 20 106q-8 11 -40.5 6t-79.5 -25v0zM319 10q41 -26 104.5 -44.5t112.5 -18.5v0q113 0 208.5 57t151 155t55.5 213q0 105 -47 197
q-97 -149 -266 -310q-168 -161 -319 -249zM255 60q157 86 333 254q177 169 271 324q-58 74 -142.5 116.5t-180.5 42.5q-112 0 -207.5 -57t-151 -154.5t-55.5 -213.5v-1q0 -77 39 -168t94 -143zM438.5 722q40.5 0 69 -29.5t28.5 -70.5t-28.5 -70.5t-69 -29.5t-69 29.5
t-28.5 70.5t28.5 70.5t69 29.5zM317 472q30 0 51.5 -22t21.5 -53t-21.5 -53t-52 -22t-52 22t-21.5 53t21.5 53t52.5 22v0zM759 150q21 -22 21 -53t-21.5 -53t-51.5 -22q-13 0 -28 6.5t-24 15.5t-15 24.5t-6 28.5q0 31 21.5 53t51.5 22t52 -22v0z" />
    <glyph glyph-name="quan" unicode="&#xe609;" 
d="M106 135q-23 -47 -30.5 -80.5t2.5 -42.5q10 -7 30.5 -6.5t57.5 13.5t81 36q160 86 341 259t275 331q39 64 52.5 110t1.5 59q-8 11 -40.5 6t-79.5 -25q44 -29 81 -66q-14 -34 -37 -71q-92 -155 -270.5 -325.5t-335.5 -254.5q-37 -20 -69 -32q-35 42 -60 89zM71 223
q-23 72 -23 149v0q0 102 39 194.5t104 159.5t155.5 106.5t189.5 39.5q93 0 179 -34q188 101 255 27q41 -50 10.5 -143t-120.5 -215t-222 -248t-257 -210t-217.5 -108.5t-138.5 20.5q-67 74 46 262zM269 -46q175 84 387 286q212 203 306 376q26 -47 44 -118t18 -125v-1
q0 -102 -38.5 -194.5t-104 -159.5t-156 -106.5t-189.5 -39.5v0q-61 0 -139 24t-128 58zM439 722q-41 0 -69.5 -29.5t-28.5 -70.5t28.5 -70.5t69 -29.5t69 29.5t28.5 70.5t-28.5 70.5t-68.5 29.5v0zM316.5 472q-30.5 0 -52 -22t-21.5 -53t21.5 -53t52 -22t52 22t21.5 53
t-21.5 53t-52 22zM759 150q-9 9 -24 15.5t-28 6.5q-30 0 -52 -22q-9 -9 -15 -24.5t-6 -28.5q0 -31 21.5 -53t51.5 -22t51.5 22t21.5 53t-21 53v0z" />
    <glyph glyph-name="wo_mis" unicode="&#xe60b;" 
d="M539 141v0q-102 0 -189 50.5t-137.5 137.5t-50.5 189.5t50.5 189.5t137.5 137.5t189 50.5t189 -50.5t137.5 -137.5t50.5 -189.5t-50.5 -189.5t-137.5 -137.5t-189 -50.5zM539 249q112 0 190.5 79t78.5 190.5t-78.5 190.5t-190.5 79t-191 -79t-79 -190.5t79 -190.5
t191 -79zM463 -50l-95 69l-179 -107q-12 -7 -27 -7q-22 0 -38 15.5t-16 38.5q0 12 7.5 25.5t18.5 19.5l208 126q13 8 28 8q18 0 32 -10l110 -80h124h1q22 0 37.5 -16t15.5 -38t-15.5 -38t-37.5 -16h-1h-141q-17 0 -31 10h-1zM835.5 -74q-33.5 0 -57 23.5t-23.5 57t23.5 57.5
t57 24t57 -24t23.5 -57.5t-23.5 -57t-57 -23.5z" />
    <glyph glyph-name="wo" unicode="&#xe60c;" 
d="M539 141v0q-102 0 -189 50.5t-137.5 137.5t-50.5 189.5t50.5 189.5t137.5 137.5t189 50.5t189 -50.5t137.5 -137.5t50.5 -189.5t-50.5 -189.5t-137.5 -137.5t-189 -50.5zM835.5 -74q-33.5 0 -57 23.5t-23.5 57t23.5 57.5t57 24t57 -24t23.5 -57.5t-23.5 -57t-57 -23.5z
M463 -50l-95 69l-179 -107q-12 -7 -27 -7q-22 0 -38 15.5t-16 38.5q0 12 7.5 25.5t18.5 19.5l208 126q13 8 28 8q18 0 32 -10l110 -80h124h1q22 0 37.5 -16t15.5 -38t-15.5 -38t-37.5 -16h-1h-141q-17 0 -31 10h-1z" />
    <glyph glyph-name="buy" unicode="&#xe60d;" horiz-adv-x="1126" 
d="M25 333q-9 8 -11 19.5t-1 19t2 7.5l58 339q3 16 15 24q6 4 11 4.5t7 -0.5l1 -1l113 -113l189 190q32 31 67.5 47t67 16.5t62.5 -7t56 -20.5t44 -25.5t29 -22l10 -9.5q-18 16 -45.5 14t-60 -16t-60 -30.5t-46.5 -29.5l-18 -14l-194 -194l105 -105q9 -8 0 -22
q-4 -6 -10.5 -11.5t-11.5 -7.5l-4 -2l-336 -63q-21 -6 -39 13v0zM1076 425l-58 -339q-2 -13 -11 -20q-6 -5 -12 -6.5t-8 -0.5l-3 1l-112 113l-190 -190q-32 -32 -68 -48t-67.5 -16.5t-62.5 7t-55.5 20.5t-43.5 26t-29.5 22l-10.5 9q12 -11 31 -13t39 3t44.5 16t43 22
t37.5 23.5t25.5 17t9.5 7.5v0l195 195l-105 105q-6 8 4 25q7 13 22 18l336 63q21 5 39 -13q8 -8 10.5 -20t1.5 -19z" />
    <glyph glyph-name="rongyao" unicode="&#xe60e;" 
d="M502 625q101 0 187 -50t136 -135.5t50 -186.5t-50 -187t-136 -136t-187 -50t-186.5 50t-135.5 136t-50 187t50 186.5t135.5 135.5t186.5 50zM695 374h-112l-37 108q-3 14 -16 23.5t-27 9.5v0q-17 0 -29 -9.5t-14 -21.5l-38 -110h-117q-17 0 -29.5 -8.5t-17.5 -22.5
q-5 -15 0 -28t15 -19l99 -69l-37 -106q-7 -12 -3.5 -26.5t17.5 -24.5q12 -9 28 -9q14 0 27 8l99 68l92 -64q16 -13 35 -13q15 0 26 8q18 13 18 34q0 9 -4 17l-37 109l93 63q12 7 18.5 21t0.5 30q-11 32 -50 32v0v0zM875 842v-147q0 -44 -39 -75l-55 -43q-8 -6 -18 -6v0h-1
q-13 0 -22 10q-6 7 -6 17q0 13 11 21l54 43q19 14 19 33v147h-173v-168q0 -11 -8 -19t-20 -8t-20.5 8t-8.5 19v168h-164v-168q0 -11 -8.5 -19t-20.5 -8t-20 8t-8 19v168h-180v-147q0 -6 5.5 -17t12.5 -16l55 -43q9 -7 10.5 -18t-6.5 -20q-9 -10 -22 -10q-10 0 -18 6l-55 43
q-17 13 -28 35t-11 40v147q0 22 16.5 38t40.5 16h631q23 0 40 -16t17 -38z" />
    <glyph glyph-name="rongyao_mis" unicode="&#xe60f;" 
d="M502 612q-106 0 -196 -49.5t-142 -134.5t-52 -185.5t52 -186t142 -135t196 -49.5t195.5 49.5t142 135t52.5 186t-52.5 185.5t-142 134.5t-195.5 49.5zM501.5 -71q-89.5 0 -165.5 42t-120 114t-44 157t44 157t120 114t165.5 42t166 -42t120.5 -114t44 -157t-44 -157
t-120.5 -114t-166 -42zM892 839v-154q0 -46 -41 -78l-58 -45q-8 -7 -18 -7v0h-1q-13 0 -23 11q-6 8 -6 18q0 14 11 22l57 44q19 16 19 35v154h-180v-175q0 -12 -9 -20.5t-21.5 -8.5t-21 8.5t-8.5 20.5v175h-172v-175q0 -12 -9 -20.5t-21.5 -8.5t-21 8.5t-8.5 20.5v175h-188
v-154q0 -6 5.5 -17.5t12.5 -16.5l58 -45q10 -8 11 -19.5t-7 -20.5q-9 -11 -23 -11q-10 0 -19 7l-57 44q-19 14 -30 37.5t-11 41.5v154q0 24 17.5 40.5t42.5 16.5h660q25 0 42.5 -16.5t17.5 -40.5zM704 349h-117l-39 113q-4 15 -17 25t-28 10h-1q-18 0 -30 -10t-15 -22
l-40 -116h-122q-17 0 -30.5 -9t-18.5 -24q-5 -16 0 -29.5t15 -19.5l104 -71l-38 -112q-7 -12 -4 -27.5t18 -25.5q13 -9 29 -9q15 0 28 8l104 71l97 -67q17 -13 37 -13q15 0 27 8q8 5 13.5 15.5t5.5 20t-4 17.5l-39 114l97 66q13 8 19.5 22.5t0.5 31.5q-11 33 -52 33v0v0z
" />
    <glyph glyph-name="buy_mis" unicode="&#xe610;" horiz-adv-x="1126" 
d="M515 725l-194 -194l105 -105q9 -8 0 -22q-4 -6 -10.5 -11.5t-11.5 -7.5l-4 -2l-336 -63q-21 -6 -39 13q-9 8 -11 19.5t-1 19t2 7.5l58 339q3 16 15 24q6 4 11 4.5t7 -0.5l1 -1l113 -113l189 190q41 40 89 54t85 8t75.5 -25t55.5 -32t29 -24q-19 14 -46.5 11.5
t-59.5 -16.5t-59 -30.5t-45 -29.5zM575 79l195 195l-105 105q-6 8 4 25q7 13 22 18l336 63q21 5 39 -13q8 -8 10.5 -20t1.5 -19l-2 -8l-58 -339q-2 -13 -11 -20q-6 -5 -12 -6.5t-8 -0.5l-3 1l-112 113l-190 -190q-41 -41 -89 -55t-85.5 -8t-76 25t-55 32t-29.5 24
q19 -15 46.5 -12t59.5 17t59 30.5t45 29t18 13.5v0zM301 442l-34 35q-10 9 -16.5 25t-6.5 29q0 16 7 31q-15 -6 -31 -6q-13 0 -29 6.5t-25 15.5l-34 33l-12 -75l-20 -117l-3 -15l204 38v0zM790 363l35 -35q9 -9 15.5 -25t6.5 -29q0 -16 -6 -31q15 7 31 7q13 0 29 -7t25 -16
l33 -33l35 206l-204 -37v0z" />
    <glyph glyph-name="qq" unicode="&#xe612;" 
d="M512 -112q-205 0 -350.5 145.5t-145.5 350.5t145.5 350.5t350.5 145.5t350.5 -145.5t145.5 -350.5t-145.5 -350.5t-350.5 -145.5zM512 -101q99 0 188.5 38.5t154.5 103.5t103.5 154.5t38.5 188.5t-38.5 188.5t-103.5 154.5t-154.5 103.5t-188.5 38.5t-188.5 -38.5
t-154.5 -103.5t-103.5 -154.5t-38.5 -188.5t38.5 -188.5t103.5 -154.5t154.5 -103.5t188.5 -38.5zM313 464q4 9 9 12t5 7q0 83 55 141.5t132.5 58.5t132 -58.5t54.5 -141.5q0 -2 3 -2.5t7 -4.5t7 -12q2 -10 0 -42q0 -3 7.5 -11t18.5 -25.5t18 -42.5q8 -26 6 -45.5t-5.5 -29
t-8.5 -13.5q-11 -9 -34 27q-9 12 -11 13q0 -1 -2.5 -8.5l-3 -9t-3 -7.5t-3.5 -8t-4 -7.5t-5.5 -9t-6 -8t-8.5 -9.5l7 -4t16.5 -12t13 -18t4.5 -14.5t0 -14.5t-9 -15.5t-26 -11.5t-47 -9q-26 -3 -51.5 4.5t-40 16.5l-14.5 9h-13h-7.5h-6.5l-3.5 -3t-11 -7.5t-19 -9
t-31.5 -7.5t-45 -3q-46 0 -65 22.5t-7 42.5q6 10 15.5 17.5t14.5 11t4 5.5q-22 24 -34 54q-2 7 -4 13q-1 3 -5 -5q-18 -34 -27 -37q-5 -1 -10 2q-14 11 -15 36.5t10 51.5q6 16 17.5 34.5t20.5 30.5t9 14q1 12 0.5 22t-1 12t0.5 8z" />
    <glyph glyph-name="account" unicode="&#xe613;" 
d="M475 239v0q-90 0 -165.5 -44t-119.5 -120t-44 -165q-1 -14 -11.5 -24.5t-25 -10.5t-25.5 10.5t-11 24.5q0 109 53.5 201.5t146 146.5t201.5 54h1v-73h-5q-89 0 -165 44t-120 119.5t-44 165t44 165t120 119.5t165 44h5v0q89 0 165 -44t120 -119.5t44 -165t-44 -165
t-120 -119.5t-165 -44v0h-2q-15 0 -25.5 10.5t-10.5 25.5t10.5 26t25.5 11h2v0q106 0 180.5 75t74.5 180.5t-74.5 180.5t-180.5 75v0v0q-106 0 -181 -75t-75 -181v0q0 -74 49.5 -144.5t118.5 -95.5q43 -15 88 -15v-73zM950 -91q0 -16 -10.5 -26.5t-25.5 -10.5t-26 10.5
t-11 26.5q0 50 -18 90q-8 17 -32 59q-22 37 -64 77.5t-79 60.5q-8 4 -14 13.5t-6 18.5q0 15 11 26t26 11q9 0 17 -5q45 -24 95.5 -72.5t76.5 -93.5q26 -44 36 -64q24 -55 24 -121z" />
    <glyph glyph-name="wechat" unicode="&#xe614;" 
d="M512 -112q-205 0 -350.5 145.5t-145.5 350.5t145.5 350.5t350.5 145.5t350.5 -145.5t145.5 -350.5t-145.5 -350.5t-350.5 -145.5zM512 -101q99 0 188.5 38.5t154.5 103.5t103.5 154.5t38.5 188.5t-38.5 188.5t-103.5 154.5t-154.5 103.5t-188.5 38.5t-188.5 -38.5
t-154.5 -103.5t-103.5 -154.5t-38.5 -188.5t38.5 -188.5t103.5 -154.5t154.5 -103.5t188.5 -38.5zM676 494q11 0 23 -2q-16 73 -85.5 121t-158.5 48q-100 0 -171 -59.5t-71 -145.5q0 -95 97 -162l-24 -73l84 43q62 -13 85 -13q12 0 22 2q-7 24 -7 50q0 79 60 135t146 56z
M545 559q14 0 22.5 -8.5t8.5 -22t-8.5 -21.5t-22.5 -8t-25 8.5t-11 21.5t11 21.5t25 8.5zM376 499q-14 0 -25 8.5t-11 21.5t11 21.5t25 8.5t22.5 -8.5t8.5 -22t-8.5 -21.5t-22.5 -8zM896 306q0 71 -61.5 122.5t-143.5 51.5q-86 0 -146 -51t-60 -123.5t60 -123.5t146 -51
q23 0 72 12l67 -36l-19 60q85 63 85 139v0zM624 336q-9 0 -16.5 7.5t-7.5 16.5t7.5 16.5t16.5 7.5q13 0 21.5 -7.5t8.5 -17t-8.5 -16.5t-21.5 -7zM757 336q-9 0 -16.5 7.5t-7.5 16.5t7.5 16.5t16.5 7.5q13 0 21.5 -7.5t8.5 -17t-8.5 -16.5t-21.5 -7z" />
    <glyph glyph-name="logo" unicode="&#xe615;" horiz-adv-x="3453" 
d="M831 140q-51 30 -86.5 93.5t-35.5 122.5v0q0 104 74 178t178.5 74t178 -74t73.5 -178q0 -68 -33 -125.5t-89 -90.5q51 -31 86.5 -94.5t35.5 -122.5v0q0 -15 -10.5 -25.5t-25.5 -10.5t-25.5 10.5t-10.5 25.5v0q0 75 -52.5 127.5t-127.5 52.5t-127.5 -52.5t-52.5 -127.5v0
q0 -15 -10.5 -25.5t-25.5 -10.5t-25.5 10.5t-10.5 25.5q0 68 33 125.5t89 91.5zM2619 747h-110q-15 0 -25.5 -10.5t-10.5 -25.5t10.5 -25.5t25.5 -10.5h139q3 -1 7 -1t7 1h196l94 80q9 10 9 23q0 15 -11 25.5t-26 10.5q-16 0 -27 -12l-72 -55h-134v111q0 15 -10.5 25.5
t-25.5 10.5t-25.5 -10.5t-10.5 -25.5v-111zM1791 215q105 57 150 135t45 213q0 15 -10.5 25.5t-25.5 10.5t-25.5 -10.5t-10.5 -25.5q0 -87 -20.5 -142.5t-64 -93t-123.5 -74.5q-80 37 -123 74.5t-64 93t-21 142.5q0 15 -10.5 25.5t-25.5 10.5t-25.5 -10.5t-10.5 -25.5
q0 -135 45.5 -213t150.5 -135q-109 -54 -152.5 -117t-43.5 -177q0 -15 10.5 -25.5t25.5 -10.5t25.5 10.5t10.5 25.5q0 68 19 111t60 73t122 66l7 3l7 -3q82 -36 122.5 -66t59.5 -73t19 -111q0 -15 10.5 -25.5t25.5 -10.5t25.5 10.5t10.5 25.5q0 114 -43.5 177t-151.5 117z
M1682 752h-321q-15 0 -26 -10.5t-11 -25.5t11 -25.5t26 -10.5h691q15 0 25.5 10.5t10.5 25.5t-10.5 25.5t-25.5 10.5h-299q1 3 1 7v101q0 15 -10.5 25.5t-25.5 10.5t-25.5 -10.5t-10.5 -25.5v-101v-7v0zM458 753h111v103q0 15 10.5 25.5t25.5 10.5t25.5 -10.5t10.5 -25.5
v-175h-183q-15 0 -25.5 10.5t-10.5 25.5t10.5 25.5t25.5 10.5v0zM750 680q-15 0 -25.5 10.5t-10.5 25.5t10.5 25.5t25.5 10.5h430q15 0 25.5 -10.5t10.5 -25.5t-10.5 -25.5t-25.5 -10.5h-430zM565 571q0 14 10.5 25t25.5 11t25.5 -11t10.5 -25v-648q0 -15 -10.5 -25.5
t-25.5 -10.5t-25.5 10.5t-10.5 25.5v648zM2218 747h112v110q0 15 11 25.5t25.5 10.5t25 -10.5t10.5 -25.5v-183h-184q-15 0 -25.5 11t-10.5 25.5t10.5 25.5t25.5 11v0zM2331 567q0 15 10.5 25.5t25.5 10.5t25.5 -10.5t10.5 -25.5v-644q0 -15 -10.5 -25.5t-25.5 -10.5
t-25.5 10.5t-10.5 25.5v644v0zM2619 571q0 15 10.5 25.5t25.5 10.5t25.5 -10.5t10.5 -25.5v-501q0 -52 37 -89t89 -37t89 37t37 89q0 15 10.5 25.5t25.5 10.5t25.5 -10.5t10.5 -25.5q0 -82 -58 -140t-140 -58t-140 58t-58 140v501v0zM961 176v0q75 0 127.5 52.5t52.5 127
t-52.5 127.5t-127.5 53v0q-75 0 -127.5 -53t-52.5 -127.5t52.5 -127t127.5 -52.5zM0 274h341v-342h-341v342zM60 213v-221h221v221h-221zM3273 545v0q-71 0 -121 50t-50 120.5t50 120.5t121 50v0q70 0 120 -50t50 -120.5t-50 -120.5t-120 -50zM3273 605v0q46 0 78 32.5
t32 78t-32 78t-78 32.5v0q-46 0 -78.5 -32.5t-32.5 -78t32.5 -78t78.5 -32.5z" />
    <glyph glyph-name="key" unicode="&#xe616;" 
d="M805 603q60 0 103 -42.5t43 -103.5v-219q0 -100 -49 -184t-133 -133t-184 -49h-146q-99 0 -183.5 49t-133.5 133t-49 184v219q0 61 43 103.5t103 42.5q0 122 86 207.5t207 85.5q82 0 161.5 -53.5t109.5 -129.5h-81q-26 46 -82 78t-108 32q-91 0 -155 -64.5t-64 -155.5
h512zM146 457v-219q0 -121 86 -207t207 -86h146h1q121 0 206.5 85.5t85.5 206.5v1v219v0q0 30 -21.5 51.5t-51.5 21.5h-1h-584q-30 0 -52 -21.5t-22 -51.5zM402 347q0 46 32.5 78t77.5 32t77.5 -32t32.5 -78q0 -32 -21.5 -62t-51.5 -41v-116q-1 -15 -11.5 -25.5t-25.5 -11.5
v0q-15 0 -26 11t-11 26v0v116q-30 11 -51.5 41t-21.5 62v0z" />
    <glyph glyph-name="jinnang_mis" unicode="&#xe617;" 
d="M702 638q4 6 10 10q66 51 45 88q-8 15 -20 22.5t-24.5 9t-26 0.5t-23.5 -4t-17.5 -6l-7.5 -3q-6 -3 -13.5 -3t-14.5 3q-16 4 -24 20q0 2 -7 12.5t-26 22.5t-42 12q-16 0 -29 -4.5t-21.5 -11t-14.5 -14t-8.5 -12t-2.5 -5.5q-8 -16 -21 -19q-7 -2 -14.5 -2t-14.5 2
q-3 3 -24 9.5t-50 2.5t-42 -29q-6 -13 -4 -25.5t9.5 -24t16.5 -20t15.5 -13.5t7.5 -5q17 -10 17 -31q0 -19 -17 -31q-45 -29 -90 -79q-123 -134 -97 -271q29 -147 123 -219t261 -72q21 0 43.5 2t57.5 9t67 18.5t68 34t64 52t51.5 74.5t33.5 101q9 48 -1 96.5t-29.5 84
t-49.5 70t-49.5 52t-39.5 33.5q-4 -3 -8 -5q-3 -3 -18.5 -10.5t-50.5 -16.5t-71 -9q-29 0 -68.5 10t-66.5 23q-14 7 -18.5 22.5t2.5 27.5q7 14 22 19t28 -2q29 -15 61 -21t56.5 -3.5t45 8t31 10t11.5 6.5q9 4 18 4h1zM508 -128q-190 0 -306 90t-148 262q-9 42 -4.5 84t14 76
t28 67.5t36.5 58.5t40 48q34 37 66 62q-20 21 -31.5 43.5t-14 52.5t14.5 59q14 28 37 44.5t48.5 21.5t49.5 3t47 -10q51 62 126 62q79 0 125 -62q24 7 47.5 8.5t49.5 -3t49 -21.5t39 -46q17 -28 14.5 -58t-14.5 -52.5t-31 -41.5q15 -13 30 -26.5t34 -33.5t34.5 -40.5
t32 -47.5t27 -53.5t19.5 -59t8.5 -65t-5.5 -70.5q-15 -75 -50 -135.5t-80.5 -100.5t-102 -66.5t-113.5 -38t-116 -11.5zM453 409q0 19 13 32t32 13h4l21 -1q20 -2 32 -17t10 -35l-30 -218q-2 -10 -9.5 -16t-16.5 -6h-2l-34 2q-10 1 -17 8.5t-8 17.5zM487.5 18
q-20.5 0 -34.5 14.5t-14 34.5t14 34.5t34.5 14.5t34.5 -14.5t14 -34.5t-14 -34.5t-34.5 -14.5z" />
    <glyph glyph-name="jinnang" unicode="&#xe618;" 
d="M508 -128q-190 0 -306 90t-148 262q-9 42 -4.5 84t14 76t28 67.5t36.5 58.5t40 48q34 37 66 62q-20 21 -31.5 43.5t-14 52.5t14.5 59q14 28 37 44.5t48.5 21.5t49.5 3t47 -10q51 62 126 62q79 0 125 -62q24 7 47.5 8.5t49.5 -3t49 -21.5t39 -46q17 -28 14.5 -58
t-14.5 -52.5t-31 -41.5q15 -13 30 -26.5t34 -33.5t34.5 -40.5t32 -47.5t27 -53.5t19.5 -59t8.5 -65t-5.5 -70.5q-15 -75 -50 -135.5t-80.5 -100.5t-102 -66.5t-113.5 -38t-116 -11.5zM579 534q36 0 71 9t50.5 16.5t18.5 10.5q14 7 17.5 21.5t-3.5 28.5q-4 7 -13.5 12.5
t-18.5 5.5t-18 -4q-1 -2 -11.5 -6.5t-31 -10t-45 -8t-56.5 3.5t-61 21q-13 7 -28 2.5t-22 -19.5q-7 -12 -2.5 -27.5t18.5 -22.5q67 -33 135 -33zM453 409l-5 -220q1 -10 8 -17.5t17 -8.5l34 -2h2q9 0 16.5 6t9.5 16l30 218v7q0 17 -12.5 30.5t-29.5 14.5l-21 1h-4
q-19 0 -32 -13t-13 -32v0zM487.5 18q20.5 0 34.5 14.5t14 34.5t-14 34.5t-34.5 14.5t-34.5 -14.5t-14 -34.5t14 -34.5t34.5 -14.5z" />
    <glyph glyph-name="honor" unicode="&#xe61a;" horiz-adv-x="1181" 
d="M552 -127q-114 6 -216 49t-176 111t-117 159.5t-43 191.5q0 104 47 199t126 163.5t188.5 109t229.5 40.5t229.5 -40.5t188.5 -109t126 -163.5t47 -199q0 -106 -47.5 -201.5t-132.5 -166.5l55 -79q19 -27 9.5 -46t-42.5 -19h-473z" />
    <glyph glyph-name="honor1" unicode="&#xe61b;" horiz-adv-x="1097" 
d="M878 384v110q0 15 10.5 25.5t25.5 10.5q16 0 26.5 -10.5t10.5 -25.5v-110h110q15 0 25.5 -11t10.5 -26t-10.5 -25.5t-25.5 -10.5h-110v-110q0 -15 -11 -25.5t-26 -10.5v0q-15 0 -25.5 10.5t-10.5 25.5v0v110h-110q-15 0 -25.5 10.5t-11.5 25.5q0 16 10.5 26.5t26.5 10.5
h110zM73 567q0 89 44 165t120 120t165.5 44t165 -44t119.5 -120t44 -165q0 -33 -10.5 -68t-26.5 -61.5t-31.5 -48.5t-26.5 -34l-11 -11q-19 -23 -14 -49.5t32 -40.5l53 -30q109 -69 109 -133q0 -59 -54 -109.5t-146.5 -80t-202 -29.5t-202 29.5t-146.5 80t-54 109.5
q0 25 16.5 50.5t40.5 44.5t48 35t40 24l17 9q26 14 31 40.5t-14 50.5q-5 4 -12 12t-25 32.5t-32 49t-25.5 60t-11.5 68.5z" />
    <glyph glyph-name="honor2" unicode="&#xe61c;" horiz-adv-x="1194" 
d="M1170 -103q-10 -10 -28 -17.5t-32 -7.5v0h-769v0q-35 0 -60 25t-25 60v0q0 36 25 61t60 25h683v170q0 36 25 61t60.5 25t60.5 -25t25 -61v-256q0 -35 -25 -60v0zM25 871q10 10 27.5 17.5t32.5 7.5v0h769q35 0 60 -25t25 -60.5t-25 -60.5t-60 -25h-683v-170q0 -36 -25 -61
t-60.5 -25t-60.5 25t-25 61v256q0 35 25 60v0zM597.5 213q-70.5 0 -120.5 50t-50 121t50 121t120.5 50t120.5 -50t50 -121t-50 -121t-120.5 -50z" />
    <glyph glyph-name="honor3" unicode="&#xe61d;" 
d="M512 384q-199 0 -339.5 75t-140.5 181t140.5 181t339.5 75t339.5 -75t140.5 -181t-140.5 -181t-339.5 -75zM47 224q41 -84 170 -138t295 -54t295 54t170 138q15 -31 15 -64q0 -106 -140.5 -181t-339.5 -75t-339.5 75t-140.5 181q0 33 15 64zM47 480q41 -84 170 -138
t295 -54t295 54t170 138q15 -31 15 -64q0 -106 -140.5 -181t-339.5 -75t-339.5 75t-140.5 181q0 33 15 64z" />
    <glyph glyph-name="search" unicode="&#xe61e;" 
d="M173 222q-45 43 -77 118t-32 138q0 96 47.5 177.5t129 129t177.5 47.5q63 0 138 -32t118 -77q41 -43 70 -114.5t29 -130.5q0 -97 -47.5 -178.5t-129 -129t-178.5 -47.5q-59 0 -130.5 29t-114.5 70zM702 250l307 -307q11 -12 11 -28t-11.5 -27.5t-27.5 -11.5t-28 11
l-307 307zM228.5 277.5q33.5 -33.5 90.5 -57t105 -23.5q114 0 194.5 80.5t80.5 194.5q0 48 -23.5 105t-57 90.5t-90.5 57t-104 23.5q-114 0 -195 -81t-81 -195q0 -47 23.5 -104t57 -90.5z" />
    <glyph glyph-name="jia" unicode="&#xe61f;" 
d="M0 849v1q0 19 13.5 32.5t32.5 13.5h1h930h1q19 0 32.5 -13.5t13.5 -32.5v-1v-930v-1q0 -19 -13.5 -32.5t-32.5 -13.5h-1h-930h-1q-19 0 -32.5 13.5t-13.5 32.5v1v930zM23 849v-930q0 -10 7 -17t17 -7h930h1q9 0 16 7t7 16v1v930v1q0 9 -7 16t-16 7h-1h-930h-1
q-9 0 -16 -7t-7 -16v-1zM489 431v279q0 9 7 16t16 7q10 0 16.5 -6.5t6.5 -16.5v-279h280q9 0 16 -7t7 -17q0 -9 -7 -16t-16 -7h-280v-279q0 -10 -6.5 -16.5t-16.5 -7t-16.5 6.5t-6.5 17v279h-280q-9 0 -16 7t-7 16.5t7 16.5t16 7h280z" />
    <glyph glyph-name="jian" unicode="&#xe620;" 
d="M0 849v1q0 19 13.5 32.5t32.5 13.5h1h930h1q19 0 32.5 -13.5t13.5 -32.5v-1v-930v-1q0 -19 -13.5 -32.5t-32.5 -13.5h-1h-930h-1q-19 0 -32.5 13.5t-13.5 32.5v1v930zM23 849v-930q0 -10 7 -17t17 -7h930h1q9 0 16 7t7 16v1v930v1q0 9 -7 16t-16 7h-1h-930h-1
q-9 0 -16 -7t-7 -16v-1zM186 407.5q0 9.5 7 16.5t16 7h606q9 0 16 -7t7 -17q0 -9 -7 -16t-16 -7h-606q-9 0 -16 7t-7 16.5z" />
    <glyph glyph-name="backspace" unicode="&#xe621;" 
d="M512 -128q-139 0 -257 68.5t-186.5 186.5t-68.5 257t68.5 257t186.5 186.5t257 68.5t257 -68.5t186.5 -186.5t68.5 -257t-68.5 -257t-186.5 -186.5t-257 -68.5zM572 384l181 181q13 13 13 30.5t-13 29.5q-12 13 -29.5 13t-30.5 -13l-181 -181l-181 181q-13 13 -30.5 13
t-29.5 -13q-13 -12 -13 -29.5t13 -30.5l181 -181l-181 -181q-13 -13 -13 -30.5t13 -29.5q12 -13 29.5 -13t30.5 13l181 181l181 -181q12 -13 30 -13t30 13q13 12 13 29.5t-13 30.5l-181 181v0z" />
    <glyph glyph-name="erweima" unicode="&#xe622;" 
d="M623 896v-660h-623v660h623zM505 362v408h-386v-408h386v0zM512 191h111v-114h-111v114zM712 896h112v-114h-112v114zM0 191h423v-114h-423v114zM712 668h112v-432h-112v432zM200 668h201v-227h-201v227zM913 373h111v-114h-111v114zM913 896h111v-432h-111v432zM0 -14
h111v-114h-111v114zM200 -14h446v-114h-446v114zM712 -128h312v319h-312v-319zM806 95h124v-127h-124v127z" />
    <glyph glyph-name="addmembers" unicode="&#xe623;" 
d="M502 394v201q0 8 6 14t14 6t14 -6t6 -14v-201h201q8 0 14 -6t6 -14t-6 -14t-14 -6h-201v-201q0 -8 -6 -14t-14 -6t-14 6t-6 14v201h-201q-8 0 -14 6t-6 14t6 14t14 6h201zM512 -128q-139 0 -257 68.5t-186.5 186.5t-68.5 257t68.5 257t186.5 186.5t257 68.5t257 -68.5
t186.5 -186.5t68.5 -257t-68.5 -257t-186.5 -186.5t-257 -68.5zM512 -118q102 0 195 40t160 107t107 160t40 195t-40 195t-107 160t-160 107t-195 40t-195 -40t-160 -107t-107 -160t-40 -195t40 -195t107 -160t160 -107t195 -40z" />
    <glyph glyph-name="selected" unicode="&#xe624;" horiz-adv-x="1242" 
d="M178 432q-12 10 -32 17t-36 7q-45 0 -76.5 -31.5t-31.5 -76.5q0 -21 11.5 -45.5t28.5 -38.5l376 -304q35 -28 80 -23t73 40l583 742q9 12 16 31.5t7 34.5q0 45 -32 76.5t-76 31.5q-22 0 -47 -12t-38 -29l-515 -655l-291 235v0z" />
    <glyph glyph-name="myhonor" unicode="&#xe625;" 
d="M949 348q25 -33 43 -85.5t18 -93.5v-1q0 -122 -88 -209t-212 -87t-212 87t-88 209q0 35 8 69q-63 9 -121 36q-103 -40 -170.5 -133.5t-76.5 -207.5h-50q9 121 75.5 220.5t172.5 152.5q-60 46 -94 114t-34 146q0 89 44.5 165.5t121.5 120.5t167 44t167 -44t121.5 -120.5
t44.5 -165.5q0 -55 -18 -106q27 -5 61.5 -19.5t56.5 -30.5l-298 -172q-56 -32 -72.5 -95t16 -119t95 -73t118.5 15t72.5 94.5t-15.5 119.5q-8 14 -23 29.5t-29 24.5zM435 288q33 73 113.5 125t160.5 52h5q18 48 18 99v1q0 114 -82 195t-197 81t-196.5 -81t-81.5 -195
q0 -110 75.5 -190t184.5 -87v0zM782 223q13 -12 26 -33t19 -39l107 63q4 2 8 7.5t6 10.5l2 4q8 15 7.5 37t-9.5 37l-4 7zM833 127q2 -13 2 -27q0 -44 -21 -82l81 47q4 3 8 8.5t6 9.5l2 5q8 15 7.5 37t-9.5 37l-4 6l-72 -41v0zM697 49q-14 -8 -30 -8q-14 0 -29.5 8.5
t-22.5 21.5q-8 14 -8 30q0 15 8.5 30t20.5 22q14 8 30 8q15 0 30 -9t23 -21q8 -14 8 -30q0 -15 -9 -30t-21 -22v0z" />
    <glyph glyph-name="mycricis" unicode="&#xe626;" 
d="M760 463q112 -12 188 -96t76 -199q0 -122 -87 -209t-209.5 -87t-209.5 87t-87 209q0 34 7 66q-71 3 -145 39q-101 -40 -168 -133.5t-75 -207.5h-50q8 121 74 220.5t170 152.5q-52 41 -88.5 117t-36.5 142v1q0 89 44 165.5t119.5 120.5t164.5 44t164.5 -44t119.5 -120.5
t44 -165.5q0 -53 -15 -102zM704 464q18 48 18 101q0 114 -80.5 195t-194.5 81t-194.5 -81t-80.5 -195.5t80.5 -195.5t194.5 -81h9q33 74 99.5 121.5t148.5 54.5zM600 95h69q-13 -28 -8 -68q5 -35 34 -45q23 -8 36 6q10 9 19 46q6 25 10 32q7 12 20.5 20.5t18.5 8.5h33
q4 0 7.5 3.5t3.5 8.5v162v0q0 4 -3.5 7.5t-7.5 3.5v0h-32q-1 0 -31.5 11.5t-55.5 11.5h-78q-32 0 -43 -18q-6 -10 -16 -75.5t-10 -79.5t11 -24.5t23 -10.5v0zM878 95v0q4 0 7.5 3.5t3.5 8.5v162q0 4 -3.5 7.5t-8 3.5t-8 -3.5t-3.5 -7.5v-162q0 -5 3.5 -8.5t8.5 -3.5z" />
    <glyph glyph-name="commend" unicode="&#xe627;" horiz-adv-x="1303" 
d="M77 662l-68 149q-16 35 0 60t54 25h1146q39 0 66.5 -30.5t27.5 -73.5v-816q0 -43 -27.5 -73.5t-66.5 -30.5h-1038q-39 0 -66.5 30.5t-27.5 73.5v686zM778 418q0 40 -26 68t-62 28t-62 -28t-26 -68t26 -68t62 -28t62 28t26 68v0zM427 418q0 40 -25.5 68t-62 28t-62 -28
t-25.5 -68t25.5 -68t62 -28t62 28t25.5 68zM1128 418q0 40 -25.5 68t-62 28t-62 -28t-25.5 -68t25.5 -68t62 -28t62 28t25.5 68z" />
    <glyph glyph-name="zan" unicode="&#xe628;" 
d="M127 426q15 0 25.5 10.5t10.5 25.5v1q0 15 -10.5 25.5t-25.5 10.5v0v0h-74h-5q-19 0 -33 -14t-14 -34v-1l-1 -529q0 -21 13.5 -34.5t33.5 -13.5h2h77h2h-1h5v0q12 2 20.5 12t8.5 22v1v0q0 12 -8.5 22.5t-20.5 12.5v1h-60l1 482h54zM1004 479q-32 55 -99 58h-7l-238 1
q11 31 18 76t8 77q0 51 -11 102l-2 4q-11 44 -45 71.5t-78 27.5q-50 0 -84 -38.5t-34 -95.5v-4v-8q-3 -92 -70 -165t-158 -84h-5v-343v-285h17v-1h4v1l589 -1l11 1q28 0 58 20q31 20 46 53q5 7 7 15l91 421q2 6 2 12v3v11q0 38 -19 71h-1zM956 408l-97 -444v0
q-3 -8 -11 -14.5t-16 -7.5h-5l-562 1v490q43 19 71 35.5t59.5 41t54 57.5t37.5 75h1l1 4q7 21 10 41q8 43 7 73q-1 4 -1 9q0 18 11 33q15 17 38 17q19 0 37 -21.5t18 -38.5l0.5 -2t1 -5.5t1 -8.5t1.5 -11t1.5 -12.5t0.5 -14.5v-15q0 -38 -4 -64h-1v-4q-11 -56 -36 -105
l-1 -4v0q-4 -9 -4 -18v0q0 -11 5 -18t14.5 -9.5t15.5 -3.5t16 -1h283h9h4v-1h7q20 0 30 -17q6 -10 6 -21q0 -5 -2 -11l-1 -5v0v0z" />
    <glyph glyph-name="myculture" unicode="&#xe629;" 
d="M724 68q-16 -12 -27 -34t-11 -41v-1q0 -8 5.5 -13.5t13.5 -5.5t14 5.5t6 13.5q0 24 16.5 40.5t39.5 16.5t39.5 -16.5t16.5 -40.5q0 -8 5.5 -13.5t13.5 -5.5t14 5.5t6 13.5v1q0 19 -11 41t-27 34q16 12 27 34t11 41q0 39 -28 67t-67 28t-67 -28t-28 -67q0 -19 11 -41
t27 -34v0zM760 463q112 -12 188 -96t76 -199q0 -122 -87 -209t-209.5 -87t-209.5 87t-87 209q0 34 7 66q-71 3 -145 39q-101 -40 -168 -133.5t-75 -207.5h-50q8 121 74 220.5t170 152.5q-52 41 -88.5 117t-36.5 142v1q0 89 44 165.5t119.5 120.5t164.5 44t164.5 -44
t119.5 -120.5t44 -165.5q0 -53 -15 -102zM704 464q18 48 18 101q0 114 -80.5 195t-194.5 81t-194.5 -81t-80.5 -195.5t80.5 -195.5t194.5 -81h9q33 74 99.5 121.5t148.5 54.5zM637 318v-30h-32q-8 0 -13.5 -5.5t-5.5 -13.5t5.5 -13.5t13.5 -5.5h71v68q0 8 -5.5 13.5
t-13.5 5.5t-14 -5.5t-6 -13.5zM707 250h150q8 0 13.5 5.5t5.5 13.5t-5.5 13.5t-13.5 5.5h-150q-8 0 -13.5 -5.5t-5.5 -13.5t5.5 -13.5t13.5 -5.5zM636 218v-226q0 -8 5.5 -13.5t13.5 -5.5t14 5.5t6 13.5v226q0 8 -6 13.5t-14 5.5t-13.5 -5.5t-5.5 -13.5zM781 80
q-26 0 -44.5 18.5t-18.5 44.5t18.5 44.5t44.5 18.5t44.5 -18.5t18.5 -44.5t-18.5 -44.5t-44.5 -18.5z" />
    <glyph glyph-name="myenterprise" unicode="&#xe62a;" 
d="M760 463q112 -12 188 -96t76 -199q0 -122 -87 -209t-209.5 -87t-209.5 87t-87 209q0 34 7 66q-71 3 -145 39q-101 -40 -168 -133.5t-75 -207.5h-50q8 121 74 220.5t170 152.5q-52 41 -88.5 117t-36.5 142v1q0 89 44 165.5t119.5 120.5t164.5 44t164.5 -44t119.5 -120.5
t44 -165.5q0 -53 -15 -102zM704 464q18 48 18 101q0 114 -80.5 195t-194.5 81t-194.5 -81t-80.5 -195.5t80.5 -195.5t194.5 -81h9q33 74 99.5 121.5t148.5 54.5zM898 151q10 -7 15 -2q3 3 3 7.5t-3 7.5l-156 159q-7 7 -16 7q-5 0 -8.5 -2t-5.5 -3l-2 -2l-156 -159
q-3 -3 -3 -7.5t3 -7.5q6 -6 15 3l10 10l23 23v-172q0 -14 9.5 -23.5t23.5 -9.5h58v101q0 7 5 12.5t12 5.5h32q7 0 12 -5.5t5 -12.5v-101h58q14 0 23.5 9.5t9.5 23.5v171z" />
    <glyph glyph-name="settings" unicode="&#xe62b;" 
d="M1012 292q13 58 12 101t-8 67l-7 24l-111 5q-15 52 -42 98l75 85q-28 46 -62.5 79.5t-54.5 43.5l-21 11l-83 -75q-46 27 -99 41l-7 112q-58 13 -101 12t-67 -8l-24 -7l-5 -107q-51 -13 -98 -39l-78 71q-3 -2 -8.5 -4.5t-22 -13.5t-32.5 -24.5t-36.5 -38t-38.5 -53.5
q4 -4 22.5 -21t28 -31t10.5 -28q0 -4 -9.5 -29.5t-19 -50t-10.5 -24.5l-100 -4q-1 -4 -3 -9.5t-6 -25t-5.5 -40.5t1 -53t10.5 -64l99 -7q14 -58 44 -110l-65 -72q2 -3 4.5 -8.5t13.5 -22t24.5 -32.5t38 -36.5t53.5 -38.5l74 66q52 -31 110 -46l4 -98q4 -1 9.5 -3t25 -6
t40.5 -5.5t53 1t64 10.5l7 103q59 15 110 48l79 -70q46 28 79.5 62.5t43.5 54.5l11 21l-72 79q27 49 40 103zM512 146q-99 0 -169 69.5t-70 168.5t70 169t169 70t168.5 -70t69.5 -169t-69.5 -168.5t-168.5 -69.5z" />
    <glyph glyph-name="sendhonor" unicode="&#xe62c;" horiz-adv-x="1117" 
d="M1070 758q5 -6 5 -15v-209q0 -10 -6.5 -17t-16.5 -7t-16.5 7t-6.5 17v116q-47 -91 -122.5 -160t-166 -106.5t-193.5 -45.5t-204 24q-7 3 -12 9.5t-5 13.5q0 9 7 16t16 7q4 0 7 -1q100 -32 201 -21.5t188 51t156.5 114t107.5 168.5l-140 -46q-4 -1 -7 -1q-10 0 -16.5 6.5
t-6.5 16.5q0 7 4.5 13.5t10.5 8.5l186 61q3 1 7 1q9 0 15.5 -6t7.5 -15v0zM774 797q11 -7 11 -20q0 -10 -7 -16.5t-17 -6.5q-6 0 -12 3q-45 29 -114 49t-122 20h-1q-90 0 -172 -35t-141 -94t-94 -141t-35 -172t35 -172t94 -141t141 -94t172 -35t172 35t141 94t94 141t35 172
q0 10 7 16.5t16.5 6.5t16.5 -6.5t7 -16.5q0 -99 -39 -189.5t-104.5 -156t-156 -104.5t-189.5 -39t-189.5 39t-156 104.5t-104.5 156t-39 189.5t39 189.5t104.5 156t156 104.5t189.5 39q142 0 262 -76z" />
    <glyph glyph-name="send_blog" unicode="&#xe62d;" 
d="M896 663q0 13 9.5 22.5t22.5 9.5t22.5 -9.5t9.5 -22.5v-534q0 -83 -58 -141.5t-140 -58.5h-500q-82 0 -140 58.5t-58 141.5v559q0 84 58 142.5t140 58.5h490q13 0 22.5 -9.5t9.5 -22.5t-9.5 -22.5t-22.5 -9.5h-490q-56 0 -95 -40t-39 -97v-559q0 -56 39.5 -96t94.5 -40
h500q55 0 94.5 40t39.5 96v534v0zM311 103q-10 -11 -24 -11t-23 9.5t-9 22.5q0 12 7 21l639 740q9 11 24 11q13 0 22.5 -9.5t9.5 -22.5q0 -12 -8 -21l-638 -740v0z" />
    <glyph glyph-name="success_info" unicode="&#xe62e;" 
d="M512 -119q-102 0 -195 40t-160.5 107.5t-107.5 160.5t-40 195t40 195t107.5 160.5t160.5 107.5t195 40t195 -40t160.5 -107.5t107.5 -160.5t40 -195t-40 -195t-107.5 -160.5t-160.5 -107.5t-195 -40zM512 -112q101 0 193 39t158.5 105.5t105.5 158.5t39 193t-39 193
t-105.5 158.5t-158.5 105.5t-193 39t-193 -39t-158.5 -105.5t-105.5 -158.5t-39 -193t39 -193t105.5 -158.5t158.5 -105.5t193 -39zM339 363l127 -109l216 293q6 9 17 9q9 0 15.5 -6.5t6.5 -15.5q0 -7 -4 -13l-229 -312q-7 -9 -18 -9q-8 0 -14 5l-146 125q-7 6 -7 17
q0 9 6.5 15t15.5 6q8 0 14 -5v0z" />
    <glyph glyph-name="jindou" unicode="&#xe62f;" horiz-adv-x="1706" 
d="M888 26q-35 -37 -78 -62q-44 -26 -111 -44t-118 -18h-2l5 2q-62 0 -143 21.5t-135 50.5q-98 51 -168 135.5t-103.5 184t-28.5 211t52 213.5l5 8q16 34 51.5 69.5t69.5 51.5q97 39 195.5 3.5t150.5 -128.5q5 -9 24 -42q25 -49 70 -81q23 -17 51 -20q13 72 44 139l4 8
q17 34 52.5 69.5t69.5 51.5q97 39 195.5 3.5t150.5 -128.5q4 -9 24 -42q25 -49 70 -81q27 -20 61 -20h14q31 0 73.5 -10t70.5 -25q45 -26 87 -81t55 -105q34 -124 -29 -236q-20 -42 -62.5 -89t-83.5 -71q-44 -26 -111 -44t-118 -18h-2l4 2q-61 0 -142 21.5t-135 50.5
q-41 22 -78 50h-1zM932 81q32 -24 67 -42q45 -27 113 -46t120 -19q46 0 107 15t102 36q34 19 69.5 57.5t52.5 73.5q49 86 24 182q-10 39 -42 81.5t-67 63.5q-22 12 -56.5 20.5t-59.5 8.5h-11h-2q-22 0 -49 8.5t-45 20.5q-24 16 -51 46t-42 55q-11 19 -25 45
q-39 71 -113.5 99t-148.5 -1q-25 -12 -52 -38t-39 -51l-4 -7q-24 -54 -35 -111q52 -8 98 -32q45 -26 87 -81t55 -105q34 -124 -28 -236q-11 -22 -25 -43zM670 357l-3 1h25q12 0 20.5 7t8.5 17t-8.5 17.5t-20.5 7.5q-100 -12 -185 33.5t-114 125.5q-6 15 -21 18q-3 1 -7 1
q-12 0 -21 -7q-8 -7 -8 -18q0 -3 1 -6q33 -91 126 -146t207 -51zM1386 357q-114 -4 -207.5 51t-126.5 146q-1 3 -1 6q0 11 9 18t20 7q4 0 8 -1q15 -3 20 -18q29 -80 114.5 -125.5t185.5 -33.5q12 0 20.5 -7.5t8.5 -17.5t-8.5 -17t-20.5 -7h-26z" />
    <glyph glyph-name="fire" unicode="&#xe630;" 
d="M720 343q21 70 4.5 143t-59 143t-96 126.5t-106 94.5t-88.5 46q30 -72 45.5 -137t17 -109.5t-6.5 -83.5t-18 -61t-24 -40t-19.5 -23t-8.5 -7v0q11 141 -77 197q-23 15 -31 15q20 -42 21 -76.5t-15 -64.5t-36.5 -57t-47 -67.5t-41.5 -82.5q-16 -95 9.5 -177.5t80 -137.5
t130.5 -84.5t156.5 -27.5t163.5 41.5t146 115.5q39 51 58 109.5t18 111.5t-11.5 105t-28 94t-34.5 75t-28.5 50.5t-12.5 17.5q8 -41 5 -78t-14 -68.5t-22.5 -54t-20.5 -35.5l-9 -13v0z" />
    <glyph glyph-name="huakuai" unicode="&#xe631;" 
d="M140 896h744v-745h-744v745zM140 150l744 1l-370 -279z" />
    <glyph glyph-name="my_awards" unicode="&#xe632;" 
d="M772 459q103 -20 171 -101.5t68 -189.5q0 -122 -87 -209t-210 -87t-209.5 87t-86.5 209q0 35 8 69q-61 8 -119 36q-102 -40 -168.5 -133.5t-75.5 -207.5h-49q8 121 74 220.5t170 152.5q-52 41 -89 117t-37 142v1q0 89 44 165.5t119.5 120.5t165 44t165 -44t119.5 -120.5
t44 -165.5q0 -55 -17 -106zM443 288q32 73 111.5 125t159.5 52h4q17 48 17 100q0 114 -80.5 195t-194 81t-194 -81t-80.5 -195q0 -110 74.5 -190t182.5 -87v0zM494 144q4 -3 8 -4.5t6 -1.5l3 1l141 23q7 4 11 9q1 3 1 5v4l-1 1l-46 45l81 80q1 1 4 3l10.5 7t15.5 9.5t18 9
t18.5 6.5t16.5 1t13 -6q-3 3 -8.5 8t-22.5 14.5t-33.5 13.5t-38 -1.5t-39.5 -23.5l-78 -78l-48 48q-3 3 -9 -1q-2 -1 -3.5 -3.5t-1.5 -4.5l-1 -1l-21 -143q-4 -12 4 -20zM937 175q3 12 -5 20q-3 3 -7.5 4.5t-6.5 1.5l-2 -1l-142 -23q-5 -2 -9 -8q-2 -3 -2 -5.5v-3.5l1 -1
l45 -45l-81 -81q-1 -1 -3.5 -3t-10.5 -7t-16 -9.5t-18 -9t-18.5 -6.5t-16.5 -1t-13 6q3 -3 8.5 -8t22.5 -14.5t33.5 -13.5t38 1.5t39.5 23.5l79 78l48 -48q4 -2 10 2q3 3 4 8l22 143v0z" />
    <glyph glyph-name="people" unicode="&#xe633;" horiz-adv-x="1412" 
d="M741 590q0 127 -92 216.5t-222 89.5t-222 -89.5t-92 -216.5q0 -72 32 -134.5t88 -105.5q-99 -49 -162 -141t-71 -203h47q8 105 72 191t161 123q77 -35 147 -35q30 0 69.5 8.5t66.5 21.5l32 18l26 17q56 43 88 105.5t32 134.5zM427 334q-109 0 -186 75t-77 181t77 181
t186 75t186 -75t77 -181q0 -107 -75.5 -181.5t-187.5 -74.5zM1299 590q0 127 -92 216.5t-222 89.5t-222 -89.5t-92 -216.5q0 -72 32 -134.5t88 -105.5q-79 -39 -77 -54q3 -17 89 12q17 5 35 12q77 -35 147 -35q30 0 69.5 8.5t66.5 21.5l32 18l26 17q56 43 88 105.5t32 134.5
zM985 334q-109 0 -186 75t-77 181t77 181t186 75t186 -75t77 -181q0 -107 -75.5 -181.5t-187.5 -74.5zM1251 305q-9 8 -20 8q-29 0 -29 -22q0 -16 16 -24q124 -88 137 -261h57q-6 89 -48.5 167t-112.5 132zM1058 457q0 126 -92 215.5t-222 89.5t-222 -89.5t-92 -215.5
q0 -72 32.5 -135t87.5 -105q-99 -50 -162 -142t-71 -203h47q8 105 72 191.5t161 123.5q77 -36 147 -36q30 0 69.5 9t66.5 21l32 19l26 17q56 42 88 105t32 135zM744 201q-109 0 -185.5 75t-76.5 181t76.5 181t185.5 75t186 -75t77 -181q0 -107 -75 -181.5t-188 -74.5v0z
M1010 172q-9 7 -20 7q-28 0 -28 -21q0 -17 15 -25q124 -88 137 -261h57q-6 90 -48.5 168t-112.5 132v0zM732 738q-121 0 -207 -87t-86 -210t86 -210t207 -87t207 87t86 210t-86 210t-207 87z" />
    <glyph glyph-name="my_mes" unicode="&#xe634;" 
d="M851 47q50 48 50 113q0 67 -54 115t-130.5 48t-130.5 -48t-54 -115.5t54 -115.5t130 -48q11 0 22 1l-1 -1h164l-50 51v0zM759 464q109 -12 186.5 -98.5t77.5 -196.5q0 -123 -86.5 -209.5t-209.5 -86.5t-209.5 86.5t-86.5 209.5q0 34 7 66q-71 3 -145 39
q-102 -41 -168.5 -134t-75.5 -207h-49q7 106 78.5 215t165.5 158q-52 41 -89 117t-37 142v0q0 90 44 166.5t119.5 120.5t165 44t165 -44t119.5 -120.5t44 -166.5q0 -52 -16 -101v0zM703 465q18 48 18 100q0 115 -80.5 196t-194 81t-194 -81t-80.5 -195.5t80.5 -195.5
t194.5 -81h9q29 67 101.5 118.5t145.5 57.5zM603.5 139q-12.5 0 -21.5 9t-9 21.5t9 21.5t21.5 9t21.5 -9t9 -21.5t-9 -21.5t-21.5 -9zM726.5 139q-12.5 0 -21.5 9t-9 21.5t9 21.5t21.5 9t21.5 -9t9 -21.5t-9 -21.5t-21.5 -9zM849.5 139q-12.5 0 -21.5 9t-9 21.5t9 21.5
t21.5 9t21.5 -9t9 -21.5t-9 -21.5t-21.5 -9z" />
    <glyph glyph-name="tijiaoshibai" unicode="&#xe602;" 
d="M512 -116q-102 0 -194.5 40t-159 106.5t-106.5 159t-40 194.5t40 194.5t106.5 159t159 106.5t194.5 40t194.5 -40t159 -106.5t106.5 -159t40 -194.5t-40 -194.5t-106.5 -159t-159 -106.5t-194.5 -40zM512 -107q100 0 191 38.5t157 104.5t104.5 157t38.5 191t-38.5 191
t-104.5 157t-157 104.5t-191 38.5t-191 -38.5t-157 -104.5t-104.5 -157t-38.5 -191t38.5 -191t104.5 -157t157 -104.5t191 -38.5zM540 385l164 -165q6 -6 6 -14.5t-5.5 -14t-14.5 -5.5v0q-8 0 -14 6l-164 165l-164 -164q-6 -6 -14.5 -6t-14 6t-5.5 14t6 14l164 164l-163 163
q-6 6 -6 14.5t6 14t14 5.5t14 -6l163 -163l164 163q6 6 14.5 6t14 -5.5t5.5 -14t-6 -14.5l-164 -163v0z" />
    <glyph glyph-name="wujiaoxing" unicode="&#xe603;" horiz-adv-x="1097" 
d="M538 896l135 -380l404 -11l-320 -246l114 -387l-333 228l-332 -228l114 387l-320 246l403 11z" />
    <glyph glyph-name="add" unicode="&#xe635;" 
d="M464 432h-416q-20 0 -34 -14t-14 -34t14 -34t34 -14h416v-416q0 -20 14 -34t34 -14t34 14t14 34v416h416q20 0 34 14t14 34t-14 34t-34 14h-416v416q0 20 -14 34t-34 14t-34 -14t-14 -34v-416z" />
    <glyph glyph-name="tongxunlu" unicode="&#xe636;" 
d="M442.5 189q129.5 0 221.5 91t92 220t-92 220t-221.5 91t-221 -91t-91.5 -220t91.5 -220t221 -91zM442.5 104q-108.5 0 -200 53t-145 144t-53.5 199t53.5 199t145 144t200 53t200 -53t145 -144t53.5 -199t-53.5 -199t-145 -144t-200 -53zM933 246v0q-18 0 -30.5 12.5
t-12.5 30t12.5 30t30.5 12.5h48q18 0 30.5 -12.5t12.5 -30t-12.5 -30t-30.5 -12.5v0h-48v0zM876 76v0q-18 0 -30.5 12.5t-12.5 30t12.5 30t30.5 12.5h105q18 0 30.5 -12.5t12.5 -30t-12.5 -30t-30.5 -12.5v0h-105zM762 -94v0q-17 0 -29.5 12.5t-12.5 30t12.5 30t29.5 12.5
h219q18 0 30.5 -12.5t12.5 -30t-12.5 -30t-30.5 -12.5v0h-219zM373 -89l-111 79l-198 -112q-10 -6 -21 -6t-21.5 6.5t-15.5 14.5q-6 10 -6 21t6.5 21.5t15.5 15.5l222 126q10 6 21 6q14 0 25 -8l122 -87h149q18 0 30.5 -12.5t12.5 -30t-12.5 -30t-30.5 -12.5v0h-163v0
q-14 0 -25 8z" />
    <glyph glyph-name="back" unicode="&#xe637;" 
d="M761 -19l-383 382q-12 13 -12 30.5t12 29.5l383 383q10 12 10 28q0 18 -12.5 30.5t-29.5 12.5t-29 -11l-382 -382q-16 -16 -26.5 -42.5t-10.5 -48.5t10.5 -48.5t26.5 -41.5l382 -382q12 -12 29 -12q18 0 30.5 12.5t12.5 30.5q0 17 -12 29h1z" />
    <glyph glyph-name="hide" unicode="&#xe638;" horiz-adv-x="1433" 
d="M717 -128q-146 0 -279 40.5t-228.5 109t-152.5 163.5t-57 199t57 199t152.5 163.5t228.5 109t279 40.5t278.5 -40.5t228.5 -109t153 -163.5t57 -199t-57 -199t-153 -163.5t-228.5 -109t-278.5 -40.5zM717 26q117 0 222.5 30t179.5 79.5t117.5 114.5t43.5 134t-43.5 134
t-117.5 114.5t-179.5 79.5t-222.5 30t-222.5 -30t-179.5 -79.5t-117.5 -114.5t-43.5 -134t43.5 -134t117.5 -114.5t179.5 -79.5t222.5 -30zM717 77q-127 0 -217 90t-90 217t90 217t217 90t217 -90t90 -217t-90 -217t-217 -90z" />
    <glyph glyph-name="renlianshibie" unicode="&#xe604;" horiz-adv-x="1066" 
d="M533 267q-96 0 -164 69.5t-68 166.5t68 166t164.5 69t164.5 -69t68 -166.5t-68 -166.5t-165 -69v0zM533 695q-78 0 -134 -56.5t-56 -136t56 -135.5t134.5 -56t134 56t55.5 135.5t-55.5 136t-134.5 56.5v0zM806 52q-5 81 -54 147t-125 94l15 41q88 -33 144.5 -109
t62.5 -170zM260 51l-42 2q6 95 62 171.5t145 109.5l15 -41q-77 -28 -125.5 -94t-54.5 -148zM22 618q-9 0 -15.5 6.5t-6.5 15.5v0v234q0 9 6.5 15.5t15.5 6.5h225q9 0 15 -6.5t6 -15.5t-6 -15.5t-15 -6.5h-204v-212q0 -9 -6 -15.5t-15 -6.5v0zM1045 618q-9 0 -15.5 6.5
t-6.5 15.5v0v212h-224q-9 0 -15.5 6.5t-6.5 15.5v0q0 9 6.5 15.5t15.5 6.5h246q9 0 15 -6.5t6 -15.5v-234q0 -9 -6 -15.5t-15 -6.5zM247 -127h-225q-9 0 -15.5 6.5t-6.5 15.5v0v226q0 9 6.5 15t15.5 6t15 -6t6 -15v-204h204q9 0 15 -6.5t6 -15.5t-6 -15.5t-15 -6.5v0z
M1045 -127h-246q-9 0 -15.5 6.5t-6.5 15.5v0q0 9 6.5 15.5t15.5 6.5h224v204q0 9 6.5 15t15.5 6t15 -6t6 -15v-226q0 -9 -6 -15.5t-15 -6.5z" />
    <glyph glyph-name="renliancaiji" unicode="&#xe60a;" 
d="M714.5 461q-116.5 0 -198.5 -83.5t-82 -201.5t82 -201.5t198.5 -83.5t199 83.5t82.5 201.5t-82.5 201.5t-199 83.5zM828 9h-237v292h237v-292v0zM631 48h157v210h-157v-210zM762 207h-118v30h118v-30zM762 147h-118v30h118v-30zM703 87h-59v30h59v-30zM735 577
q0 132 -91 225t-220 93t-220 -93t-91 -225v-1q0 -63 34.5 -136t84.5 -112q-99 -52 -161.5 -147.5t-70.5 -211.5h47q8 110 71.5 199.5t159.5 128.5q76 -38 146 -38t134 32l32 19l26 18q49 39 84 112t35 136v1v0zM424 311q-108 0 -184.5 78t-76.5 188.5t76.5 188t184.5 77.5
t184 -77.5t76 -188.5t-74.5 -188.5t-185.5 -77.5z" />
    <glyph glyph-name="chongzhi" unicode="&#xe611;" 
d="M962 622v0q0 24 -17 40.5t-40 16.5v0h-93v48q0 36 -25.5 62t-61.5 26q-29 0 -52 -18v10q0 37 -25.5 63t-61.5 26q-42 0 -69 -36q-10 15 -30.5 25.5t-38.5 10.5q-36 0 -61.5 -26t-25.5 -62v-11q-23 18 -52 18q-36 0 -61.5 -26t-25.5 -62v-47h-103q-24 0 -41 -17t-17 -41
v-391q0 -23 17 -40t41 -17h102q3 -126 89.5 -214t207.5 -88q94 0 170 56t108 147q25 -12 52 -12q47 0 80.5 33.5t33.5 81.5v110v0v334v0zM724 780q22 0 37.5 -15.5t15.5 -37.5v-46h-104v46q0 22 15 37.5t36 15.5v0zM586 860q22 0 37.5 -15t15.5 -37v-127h-105v127v1
q0 21 15 36t37 15v0zM395 808q0 21 15.5 36.5t36.5 15.5t36.5 -15.5t15.5 -36.5v-127h-104v126v1zM256 727q0 21 15 36.5t37 15.5q21 0 36.5 -15.5t15.5 -36.5v-46h-104v46v0zM518 -91q-105 0 -181 75.5t-80 183.5h474q1 -46 33 -80q-28 -81 -95.5 -130t-150.5 -49zM928 178
q-1 -33 -24.5 -56.5t-56.5 -23.5v0q-32 0 -55.5 22t-25.5 54v114q0 35 24 59.5t57 24.5t56.5 -24.5t23.5 -59.5h1v-110v0zM520 609q71 0 122.5 -53.5t51.5 -128t-51.5 -127t-122.5 -52.5t-121.5 52.5t-50.5 127t50.5 128t121.5 53.5v0zM600 391h-61v37h61q7 0 12 5.5t5 12.5
v0q0 8 -5 13t-12 5h-37l38 60q3 4 3 9q0 10 -7 15q-5 4 -12 2.5t-11 -7.5l-52 -78l-51 78q-5 8 -14 8q-5 0 -8 -3q-6 -3 -7.5 -10.5t2.5 -13.5l38 -59h-39q-8 0 -13 -5.5t-5 -12.5v0q0 -8 5 -13t13 -5h63l1 -1v-36h-64q-8 0 -13 -5.5t-5 -12.5v0q0 -8 5 -13t13 -5h63v-28
q0 -7 4.5 -12.5t11.5 -5.5t12 5t5 12v1v27h61q7 0 12 5.5t5 12.5v0q0 8 -5 13t-12 5v0z" />
    <glyph glyph-name="renlianshibie2" unicode="&#xe63b;" horiz-adv-x="1066" 
d="M533 267q-96 0 -164 69.5t-68 166.5t68 166t164.5 69t164.5 -69t68 -166.5t-68 -166.5t-165 -69v0zM533 695q-78 0 -134 -56.5t-56 -136t56 -135.5t134.5 -56t134 56t55.5 135.5t-55.5 136t-134.5 56.5v0zM806 52q-5 81 -54 147t-125 94l15 41q88 -33 144.5 -109
t62.5 -170zM260 51l-42 2q6 95 62 171.5t145 109.5l15 -41q-77 -28 -125.5 -94t-54.5 -148zM22 618q-9 0 -15.5 6.5t-6.5 15.5v0v234q0 9 6.5 15.5t15.5 6.5h225q9 0 15 -6.5t6 -15.5t-6 -15.5t-15 -6.5h-204v-212q0 -9 -6 -15.5t-15 -6.5v0zM1045 618q-9 0 -15.5 6.5
t-6.5 15.5v0v212h-224q-9 0 -15.5 6.5t-6.5 15.5v0q0 9 6.5 15.5t15.5 6.5h246q9 0 15 -6.5t6 -15.5v-234q0 -9 -6 -15.5t-15 -6.5zM247 -127h-225q-9 0 -15.5 6.5t-6.5 15.5v0v226q0 9 6.5 15t15.5 6t15 -6t6 -15v-204h204q9 0 15 -6.5t6 -15.5t-6 -15.5t-15 -6.5v0z
M1045 -127h-246q-9 0 -15.5 6.5t-6.5 15.5v0q0 9 6.5 15.5t15.5 6.5h224v204q0 9 6.5 15t15.5 6t15 -6t6 -15v-226q0 -9 -6 -15.5t-15 -6.5z" />
    <glyph glyph-name="bangzhu" unicode="&#xe63c;" 
d="M984 583q-16 38 -48.5 86t-61.5 77q-62 62 -168 106t-193 44h-1h-1q-87 0 -193 -44t-168 -106t-106 -168t-44 -193v-1v-1q0 -87 44 -193t106 -168t168 -106t193 -44h1h1q87 0 193 44t168 106t106 168t44 193v1q0 104 -40 199zM512 -84q-95 0 -181.5 37t-149.5 100
t-100 149.5t-37 181.5t37 181.5t100 149.5t149.5 100t181.5 37t181.5 -37t149.5 -100t100 -149.5t37 -181.5t-37 -181.5t-100 -149.5t-149.5 -100t-181.5 -37zM548 193h-81v0q-6 0 -6 -7v-80q0 -6 6 -6h81v0q7 0 7 6v80v0q0 7 -7 7zM647 654q-53 46 -138 46q-81 0 -134 -47
t-60 -126v-1q0 -6 7 -6h76q6 0 6 5q16 104 105 104q46 0 74 -27.5t28 -70.5q0 -22 -10 -41q-10 -20 -55 -58q-47 -39 -64 -74.5t-17 -109.5q0 -7 6 -7h69v0q6 0 6 7q0 54 10.5 76.5t58.5 61.5q49 41 67 75q18 35 18 74v1q0 71 -53 118v0z" />
    <glyph glyph-name="duihuanjilu1" unicode="&#xe63d;" 
d="M564 -50q-51 -11 -91 -11q-111 0 -206 55t-149.5 149.5t-54.5 206t54.5 206t149.5 149t206.5 54.5t206 -54.5t149.5 -149t55 -206.5q0 -12 9 -21t21 -9q13 2 21.5 11t8.5 22q0 119 -56 222.5t-153 168.5t-214 77v21q1 23 -15 38.5t-39 15.5h-7q-23 0 -38.5 -15.5
t-15.5 -38.5v-21q-113 -17 -206 -83t-146.5 -167.5t-53.5 -217.5q0 -97 37.5 -184.5t101 -150.5t151 -100.5t183.5 -37.5q46 0 104 11q13 3 20 13.5t3 23.5q-3 13 -13 20t-23 3v0zM475 617v0q-13 0 -21.5 -8.5t-8.5 -21.5v0v-235q0 -13 8.5 -22t21.5 -9h221v0q12 0 21 9
t9 21v1q-2 14 -11 23t-22 9h-188v203q0 13 -8.5 21.5t-21.5 8.5v0zM816.5 287q-85.5 0 -146.5 -61t-61 -146.5t61 -146t146 -60.5v0h1q85 0 146 60.5t61 146t-61 146.5t-146.5 61zM891 -3q-31 -13 -74.5 -13t-74.5 13q-28 12 -28 27q0 10 16 20l2 1l1 -1l5 -2
q33 -13 78.5 -13t78.5 13l5 2l1 1l2 -1q16 -10 16 -20q0 -15 -28 -27zM891 53q-31 -13 -74.5 -13t-74.5 13q-28 12 -28 26q0 12 17 22h1h2q3 -2 4 -2q33 -14 78.5 -14t78.5 14l4 2l2 1l1 -2h1l7 -7q9 -8 9 -14q0 -14 -28 -26v0zM891 109q-31 -12 -74.5 -12t-74.5 12
q-28 12 -28 27t28 27q31 12 74.5 12t74.5 -12q28 -12 28 -27t-28 -27z" />
    <glyph glyph-name="zaixiankefu" unicode="&#xe63e;" 
d="M922 559h-1h-1q-33 146 -149 241.5t-266 95.5q-155 0 -272.5 -100.5t-146.5 -252.5q-28 -5 -47 -27.5t-19 -51.5v-160q0 -34 23.5 -57.5t56.5 -23.5q37 0 61 30q23 -61 80.5 -122t116.5 -87l4 6q3 4 5 4t4 -2q-27 20 -65 78.5t-48 131.5q-6 36 16.5 68t55.5 38t102 20
t105 21q64 12 92 73q10 21 13 56q2 7 9 7q4 0 7 -4l1 2q81 -118 89 -222q8 -89 -6 -145t-70 -108q-3 -2 -3 -5t3 -5q1 -1 1.5 -1h0.5l2 -1l2 1l3 2q53 29 104 91.5t69 120.5q8 -12 23 -22t28 -13q-25 -115 -118.5 -186.5t-225.5 -83.5q-7 19 -26 31.5t-39 12.5v0
q-29 0 -50 -20t-21 -48.5t21 -49t50 -20.5q23 0 41 13.5t25 34.5q152 13 259.5 98.5t132.5 222.5q20 8 35 30.5t15 44.5v0v162v0q0 33 -24 57t-58 24v0zM849 513q-40 108 -134 175.5t-210 67.5q-117 0 -210.5 -67t-133.5 -174q-2 2 -8 9q22 129 121.5 215t230.5 86
q130 0 229.5 -85t122.5 -214q-5 -7 -8 -13v0z" />
    <glyph glyph-name="commitment" unicode="&#xe639;" 
d="M687 628.5q0 -12.5 -8.5 -21t-20.5 -8.5h-265v0q-12 0 -20.5 8.5t-8.5 20.5v1q0 12 8.5 20.5t20.5 8.5h265q12 0 20.5 -8.5t8.5 -21zM687 395q0 12 -8.5 20.5t-20.5 8.5h-483h-1q-12 0 -20.5 -8.5t-8.5 -20.5v0q0 -12 8.5 -20.5t21.5 -8.5h482q13 0 21.5 8.5t8.5 20.5v0z
M658 541h-483h-1q-12 0 -20.5 -8.5t-8.5 -20.5v0q0 -12 8.5 -20.5t21.5 -8.5h482v0q12 0 20.5 8.5t8.5 20.5v0q1 12 -7.5 20.5t-20.5 8.5zM541 249q18 32 42 59h-408h-1q-12 0 -20.5 -8.5t-8.5 -20.5v-1q0 -12 8.5 -20.5t21.5 -8.5h366zM175 132h333q2 28 10 59h-343h-1
q-12 0 -20.5 -8.5t-8.5 -20.5v0q0 -12 9 -21t21 -9v0zM172 16h353q-11 28 -15 58h-338v0q-12 0 -20.5 -8.5t-8.5 -20.5v0q0 -12 8.5 -20.5t20.5 -8.5v0zM758 394q10 1 28 1q20 0 31 -1v378v1q0 51 -36 87t-87 36h-1h-405q-11 0 -21 -4q-10 -3 -18 -11l-212 -205
q-6 -4 -13 -18q-4 -10 -4 -21v0v-619v-1q0 -51 36.5 -87t87.5 -36v0h472q-33 25 -56 59h-416v0q-27 0 -46 19t-19 46v0v601h104q51 1 87 37t36 87v95h388q27 0 46 -19.5t19 -46.5v-378h-1v0zM1004 115v0q0 -90 -64 -153.5t-153 -63.5h-1q-90 0 -153.5 63.5t-63.5 153
t63.5 153.5t153.5 64h1q89 0 153 -63.5t64 -153.5v0v0zM907 115v0q0 12 -8.5 20.5t-20.5 8.5h-1h-181v0q-12 0 -20.5 -8.5t-8.5 -20.5v0q0 -12 8.5 -20.5t20.5 -8.5h183q11 0 19.5 8.5t8.5 20.5z" />
    <glyph glyph-name="X" unicode="&#xe63a;" 
d="M562 405l409 -410q14 -15 14 -35t-14 -34.5t-35 -14.5q-20 0 -35 14l-408 410l-409 -406q-14 -15 -34.5 -15t-35 14.5t-14.5 35t15 35.5l408 406l-405 407q-14 14 -14 34.5t14 35t34.5 14.5t35.5 -15l405 -406l409 407q14 14 34.5 14t35 -14.5t14.5 -35t-15 -34.5
l-409 -407v0z" />
    <glyph glyph-name="alert" unicode="&#xe63f;" 
d="M633 821l347 -694q15 -29 15 -61q0 -56 -40 -95.5t-96 -39.5h-694q-56 0 -96 39.5t-40 95.5q0 32 15 61l347 694q15 31 50.5 53t70.5 22t70.5 -22t50.5 -53v0zM606 808q-12 24 -39.5 41t-54.5 17t-54.5 -17t-39.5 -41l-347 -695q-12 -22 -12 -47q0 -44 31 -74.5t75 -30.5
h694q44 0 75 30.5t31 74.5q0 25 -12 47l-347 695v0zM512 121q26 0 42.5 -16.5t16.5 -40.5v-2q0 -23 -17 -40q-17 -16 -41 -16h-1h-1q-23 0 -40 16t-17 40v2q0 25 17 40q16 17 39 17h2zM468 694q3 32 44.5 32t44.5 -32l-15 -503h-60z" />
    <glyph glyph-name="qiyerenzheng" unicode="&#xe640;" 
d="M512 -128q-139 0 -257 68.5t-186.5 186.5t-68.5 257t68.5 257t186.5 186.5t257 68.5t257 -68.5t186.5 -186.5t68.5 -257t-68.5 -257t-186.5 -186.5t-257 -68.5zM310 165h-90q-29 0 -29 -25q0 -12 7.5 -19t21.5 -7h583h2q11 0 19 7t8 18v1q0 25 -29 25h-234v201h191h1
q12 0 21 7t9 18v1q0 12 -8 19q-10 7 -21 7q-1 0 -2 -1h-191v108v1q0 12 -8 21q-8 8 -19 8h-1h-1q-11 0 -18 -8q-7 -7 -7 -22v-360h-151v287v1q0 12 -8 21t-19 9v0h-2q-10 0 -18 -8q-7 -8 -7 -23v-287zM848 494q2 5 2 11t-2 11q-5 11 -23 19q-30 11 -59 26q-32 18 -61 38
q-35 24 -68 52q-35 30 -77 71q-19 19 -41 19q-11 0 -20 -6q-12 -6 -20 -15q-30 -33 -57 -59q-29 -27 -60 -50q-32 -23 -69 -45q-36 -21 -80 -41q-18 -9 -21 -19q-1 -4 -1 -9q0 -8 4 -16q6 -12 16 -12q12 0 23 5q71 32 141 82q71 51 131 115q8 9 14 9t12 -6q44 -41 78 -70
q36 -31 69 -53q60 -42 127 -70q14 -6 25 -4t17 17z" />
  </font>
</defs>
</svg>
